# xmcd
#
# Track frame offsets: 
#        150
#        12757
#        25185
#        37560
#        49387
#        58905
#        70735
#        84122
#        97487
#        108525
#        122252
#        136060
#        145837
#        158962
#        173720
#
# Disc length: 2472 seconds
#
# Revision: 8
# Processed by: cddbd v1.5.2PL0 Copyright (c) Steve Scherf et al.
# Submitted via: ExactAudioCopy v0.99pb5
#
DISCID=be09a60f
DTITLE=Various Artist - Classic Country - TL 626-08 - Golden '60s - CD 1
DYEAR=2000
DGENRE=Country
TTITLE0=Jim Reeves - I love you because
TTITLE1=Johnny Cash - Folsom prison blues (Live at Folsom Prison)
TTITLE2=Glen Campbell - By the time I get to Phoenix
TTITLE3=Jerry Lee Lewis - What's made Milwaukee famous (has made a los
TTITLE3=er out of me)
TTITLE4=Roger Miller - Chug-a-lug
TTITLE5=Tammy Wynette - I don't wanna play house
TTITLE6=Sonny James - It's the little things
TTITLE7=Carl Butler and Pearl - Don't let me cross over
TTITLE8=Buck Owens - Together again
TTITLE9=Lefty Frizzell - Saginaw, Michigan
TTITLE10=Willie Nelson - Funny how time slips away
TTITLE11=Jeannie C. Riley - The girl most likely
TTITLE12=Johnny Tillotson - Send me the pillow that you dream on
TTITLE13=Marty Robbins - Don't worry
TTITLE14=Patsy Cline - Sweet dreams (of you)
EXTD=TIME LIFE\n YEAR: 2000
EXTT0=
EXTT1=
EXTT2=
EXTT3=
EXTT4=
EXTT5=
EXTT6=
EXTT7=
EXTT8=
EXTT9=
EXTT10=
EXTT11=
EXTT12=
EXTT13=
EXTT14=
PLAYORDER=
